<svg width="1952" height="470" viewBox="0 0 1952 470" fill="none" xmlns="http://www.w3.org/2000/svg">
<path fill-rule="evenodd" clip-rule="evenodd" d="M0 235V470H233.5H467V235V0H233.5H0V235ZM869 124V146H910.5H952V256.5V367H976H1000V256.5V146H1041.5H1083V124V102H976H869V124ZM1169 234.5V367H1261.5H1354V345V323H1285H1216V212.5V102H1192.5H1169V234.5ZM1439 234.5V367H1537H1635V345.5V324H1558H1481V289.5V255H1540H1599V233.5V212H1540H1481V178.5V145H1558H1635V123.5V102H1537H1439V234.5ZM1728 234.5V367H1751.5H1775V321V275L1803.75 275.054L1832.5 275.109L1864.56 320.804L1896.63 366.5L1924.43 366.766C1946.76 366.98 1952.13 366.779 1951.73 365.745C1951.46 365.038 1936.65 343.993 1918.83 318.979C1901 293.966 1885.39 272.036 1884.14 270.246C1882 267.188 1881.97 266.954 1883.68 266.373C1889.22 264.49 1901.89 258.721 1906.82 255.831C1909.94 253.999 1916.59 248.438 1921.59 243.472C1928.99 236.13 1931.46 232.862 1934.85 225.972C1941.49 212.449 1943.27 204.146 1943.27 186.5C1943.27 168.97 1941.48 160.488 1935.05 147.5C1922.52 122.16 1896.77 106.719 1860.92 103.04C1855.09 102.441 1824.74 102 1789.39 102H1728V234.5ZM311.193 233.5C342.383 305 368.135 364.063 368.42 364.75C368.825 365.73 363.809 365.995 345.219 365.979L321.5 365.958L277.591 262.229C253.441 205.178 233.381 158.15 233.013 157.722C232.646 157.295 212.395 203.982 188.012 261.472L143.678 366H120.89H98.102L99.461 362.75C102.944 354.42 211.294 106.319 212.135 104.747C213.014 103.105 214.776 102.982 233.788 103.23L254.484 103.5L311.193 233.5ZM554 235V367H576.995H599.99L600.245 274.557L600.5 182.114L672 274.547L743.5 366.98L763.75 366.99L784 367V235V103H760.505H737.011L736.755 193.003L736.5 283.006L667 193.055L597.5 103.104L575.75 103.052L554 103V235ZM1860 147.416C1874.45 150.486 1886.45 158.915 1891.46 169.512C1901.47 190.664 1893.67 214.929 1873.42 225.684C1861.39 232.07 1859.57 232.291 1815.25 232.736L1775 233.141V189.571V146L1814.25 146.017C1843.78 146.03 1855.11 146.377 1860 147.416Z" fill="#ED4746"/>
</svg>
